<svg xmlns="http://www.w3.org/2000/svg" viewBox="0 0 100 100">
  <defs>
    <linearGradient id="g" x1="0%" y1="0%" x2="100%" y2="100%">
      <stop offset="0%" stop-color="#7c3aed"/>
      <stop offset="100%" stop-color="#4f46e5"/>
    </linearGradient>
  </defs>
  <rect width="100" height="100" rx="20" fill="url(#g)"/>
  <rect x="20" y="20" width="18" height="18" rx="3" fill="white"/>
  <rect x="44" y="20" width="18" height="18" rx="3" fill="white"/>
  <rect x="20" y="44" width="18" height="18" rx="3" fill="white"/>
  <rect x="44" y="44" width="18" height="18" rx="3" fill="white" opacity="0.5"/>
  <rect x="68" y="20" width="12" height="12" rx="2" fill="white"/>
  <rect x="68" y="38" width="12" height="12" rx="2" fill="white"/>
  <rect x="68" y="56" width="12" height="12" rx="2" fill="white"/>
  <rect x="38" y="68" width="12" height="12" rx="2" fill="white"/>
  <rect x="56" y="68" width="12" height="12" rx="2" fill="white"/>
  <rect x="20" y="68" width="12" height="12" rx="2" fill="white"/>
  <rect x="44" y="68" width="8" height="8" rx="1.5" fill="white" opacity="0.6"/>
  <rect x="56" y="56" width="8" height="8" rx="1.5" fill="white" opacity="0.6"/>
  <rect x="68" y="68" width="12" height="12" rx="2" fill="white" opacity="0.7"/>
</svg>
